<svg xmlns="http://www.w3.org/2000/svg" viewBox="0 0 600 220"><path fill="#e33c3e" d="m188.23 44.88-27.15 29.6a60.82 60.82 0 0 1 11.4 35.52 61 61 0 0 1-18 43.42 61 61 0 0 1-43.4 18 60.99 60.99 0 0 1-43.43-18 61 61 0 0 1-18-43.42 61.47 61.47 0 0 1 60.33-61.37l31.91-34.8a100.9 100.9 0 0 0-30.82-4.9C55.34 8.93 10 54.27 10 110c0 27 10.51 52.38 29.6 71.46a100.44 100.44 0 0 0 71.47 29.6c27 0 52.38-10.5 71.46-29.6a100.37 100.37 0 0 0 29.6-71.46c0-24.13-8.48-46.91-23.9-65.12M154.58 15.3v-.13l-70.25 76.5h47.1l70.03-76.37m83.37 109.13h55.34c7.6 0 23.06 1.05 23.06 22.59 0 26.25-18.45 26.78-30.65 26.78h-47.75zm0-76.42h48.3c14.1 0 25.22 5.25 25.22 21.8 0 15.23-10.04 21.8-27.4 21.8h-46.11zm-40.69 158.61h89.26c12.47 0 34.45-1.83 48.02-13.12 17.62-14.71 20.6-30.46 20.6-40.44 0-22.84-11.94-39.66-23.6-48.33 14.38-11.54 18.71-27.83 18.71-39.39 0-7.87-3.8-50.15-71.33-50.15h-81.66m228.67 109.24h55.34c7.6 0 23.07 1.05 23.07 22.58 0 26.26-18.46 26.78-30.67 26.78h-47.74zm0-76.42h48.29c14.1 0 25.22 5.25 25.22 21.8 0 15.23-10.03 21.8-27.4 21.8h-46.11zm-40.69 158.61h89.24c12.49 0 34.46-1.84 48.03-13.13 17.63-14.7 20.61-30.45 20.61-40.43 0-22.85-11.94-39.66-23.6-48.33 14.38-11.55 18.71-27.84 18.71-39.4 0-7.87-3.8-50.15-71.34-50.15h-81.65"/></svg>