<?xml version="1.0" encoding="UTF-8" standalone="no"?>
<svg
   xmlns:dc="http://purl.org/dc/elements/1.1/"
   xmlns:cc="http://creativecommons.org/ns#"
   xmlns:rdf="http://www.w3.org/1999/02/22-rdf-syntax-ns#"
   xmlns:svg="http://www.w3.org/2000/svg"
   xmlns="http://www.w3.org/2000/svg"
   xmlns:sodipodi="http://sodipodi.sourceforge.net/DTD/sodipodi-0.dtd"
   xmlns:inkscape="http://www.inkscape.org/namespaces/inkscape"
   viewBox="0 0 198.99999 207.6"
   version="1.1"
   id="svg921"
   sodipodi:docname="birmingham-airport-air-rail-link.svg"
   width="199"
   height="207.60001"
   inkscape:version="1.0.2 (e86c870879, 2021-01-15, custom)">
  <metadata
     id="metadata927">
    <rdf:RDF>
      <cc:Work
         rdf:about="">
        <dc:format>image/svg+xml</dc:format>
        <dc:type
           rdf:resource="http://purl.org/dc/dcmitype/StillImage" />
        <dc:title></dc:title>
      </cc:Work>
    </rdf:RDF>
  </metadata>
  <defs
     id="defs925" />
  <sodipodi:namedview
     pagecolor="#ffffff"
     bordercolor="#666666"
     borderopacity="1"
     objecttolerance="10"
     gridtolerance="10"
     guidetolerance="10"
     inkscape:pageopacity="0"
     inkscape:pageshadow="2"
     inkscape:window-width="2560"
     inkscape:window-height="1387"
     id="namedview923"
     showgrid="false"
     fit-margin-top="0"
     fit-margin-left="0"
     fit-margin-right="0"
     fit-margin-bottom="0"
     inkscape:zoom="1.5303275"
     inkscape:cx="340.45001"
     inkscape:cy="103.8"
     inkscape:window-x="1072"
     inkscape:window-y="96"
     inkscape:window-maximized="1"
     inkscape:current-layer="svg921" />
  <path
     fill="#0e2d6d"
     d="m 98.3,189.7 c -49.1,0 -89,-39.9 -89,-89 0,-49.1 39.9,-89 89,-89 49.1,0 89,39.9 89,89 0,49 -39.9,89 -89,89 z m 0,-158.3 c -38.2,0 -69.2,31.1 -69.2,69.2 0,38.2 31.1,69.2 69.2,69.2 38.1,0 69.2,-31.1 69.2,-69.2 0,-38.1 -31,-69.2 -69.2,-69.2 z"
     id="path905" />
  <path
     fill="none"
     d="M 158.3,93 C 158.3,52.5 126.9,19.2 87.2,16.1 60,27 40.7,53.6 40.7,84.6 c 0,40.6 33,73.7 73.7,73.7 3,0 5.9,-0.2 8.7,-0.5 21.1,-13.9 35.2,-37.7 35.2,-64.8 z"
     id="path907" />
  <path
     fill="none"
     d="m 162.2,93 c 0,25.4 -11.8,48.2 -30.2,63.1 32.1,-7.9 56,-37 56,-71.5 0,-40.6 -33,-73.7 -73.7,-73.7 -6.4,0 -12.6,0.8 -18.6,2.4 37.8,6.9 66.5,40 66.5,79.7 z M 29.8,84.6 C 29.8,57.8 42.4,33.8 61.9,18.3 28.6,26.9 4,57.1 4,93 c 0,42.5 34.6,77.1 77.1,77.1 6.4,0 12.7,-0.8 18.7,-2.3 -39.7,-6.8 -70,-41.5 -70,-83.2 z"
     id="path909" />
  <path
     fill="none"
     d="m 114.4,158.3 c 3,0 5.9,-0.2 8.7,-0.5 -7.1,4.6 -14.9,8.1 -23.3,10.2 -35.3,-6.2 -63.1,-34.2 -68.9,-69.6 -2.8,7.7 -4.3,16.1 -4.3,24.7 0,40.6 33,73.7 73.7,73.7 40.6,0 73.7,-33.1 73.7,-73.7 0,-40.6 -33,-73.7 -73.7,-73.7 -24.4,0 -46,11.9 -59.4,30.2 -0.1,1.7 -0.2,3.4 -0.2,5.1 0,40.5 33,73.6 73.7,73.6 z"
     id="path911" />
  <path
     fill="#94d8e9"
     d="m 99.8,167.9 c 8.4,-2.1 16.2,-5.6 23.3,-10.2 -2.9,0.3 -5.8,0.5 -8.7,0.5 -40.6,0 -73.7,-33 -73.7,-73.7 0,-1.7 0.1,-3.4 0.2,-5.1 -4.2,5.7 -7.6,12 -10,18.8 5.8,35.5 33.6,63.5 68.9,69.7 z"
     id="path913" />
  <path
     fill="#0099d8"
     d="m 100.3,38.4 c -20.9,0 -40.1,7.7 -54.9,20.3 -5.8,4.9 -10.9,10.6 -15.1,16.9 -9.2,13.5 -14.5,29.8 -14.5,47.4 0,46.6 37.9,84.6 84.6,84.6 C 147,207.6 185,169.7 185,123 184.9,76.3 146.9,38.4 100.3,38.4 Z m 0,158.3 c -40.6,0 -73.7,-33.1 -73.7,-73.7 0,-8.7 1.5,-17 4.3,-24.7 2.4,-6.8 5.8,-13.1 10,-18.8 13.4,-18.3 35.1,-30.2 59.4,-30.2 40.6,0 73.7,33 73.7,73.7 0,40.6 -33.1,73.7 -73.7,73.7 z"
     id="path915" />
  <path
     fill="#94d8e9"
     d="M 114.4,0 C 98,0 82.7,4.7 69.8,12.7 67.1,14.4 64.4,16.3 61.9,18.3 44.6,32.1 32.7,52.5 30.3,75.6 34.6,69.3 39.7,63.6 45.4,58.7 52.7,39.3 67.9,23.8 87.1,16.1 89.9,15 92.8,14 95.8,13.2 c 5.9,-1.5 12.2,-2.4 18.6,-2.4 40.6,0 73.7,33 73.7,73.7 0,34.5 -23.9,63.6 -56,71.5 -6.7,5.4 -14.3,9.8 -22.6,12.9 1.6,0.1 3.2,0.2 4.9,0.2 C 161,169.1 199,131.2 199,84.5 198.9,37.9 161,0 114.4,0 Z"
     id="path917" />
  <path
     fill="#a4c0e5"
     d="m 95.8,13.3 c -3,0.8 -5.8,1.7 -8.7,2.9 39.7,3.1 71.1,36.4 71.1,76.9 0,27.1 -14,50.9 -35.2,64.7 -7.1,4.6 -14.9,8.1 -23.3,10.2 -6,1.5 -12.2,2.3 -18.7,2.3 C 38.6,170.2 4,135.6 4,93 4,57.1 28.7,26.8 61.9,18.3 c 2.5,-2 5.2,-3.9 7.9,-5.6 C 30.4,18.3 0,52.2 0,93 c 0,44.7 36.4,81.1 81.1,81.1 10,0 19.5,-1.8 28.4,-5.1 8.2,-3.1 15.8,-7.5 22.6,-12.9 C 150.5,141.2 162.3,118.5 162.3,93 162.2,53.3 133.5,20.2 95.8,13.3 Z"
     id="path919" />
</svg>
