<svg xmlns="http://www.w3.org/2000/svg" viewBox="0 0 199 207.6"><path fill="#0e2d6d" d="M98.3 189.7c-49.1 0-89-39.9-89-89s39.9-89 89-89 89 39.9 89 89c0 49-39.9 89-89 89zm0-158.3c-38.2 0-69.2 31.1-69.2 69.2 0 38.2 31.1 69.2 69.2 69.2s69.2-31.1 69.2-69.2-31-69.2-69.2-69.2z"/><path fill="none" d="M158.3 93c0-40.5-31.4-73.8-71.1-76.9C60 27 40.7 53.6 40.7 84.6c0 40.6 33 73.7 73.7 73.7 3 0 5.9-.2 8.7-.5 21.1-13.9 35.2-37.7 35.2-64.8z"/><path fill="none" d="M162.2 93c0 25.4-11.8 48.2-30.2 63.1 32.1-7.9 56-37 56-71.5 0-40.6-33-73.7-73.7-73.7-6.4 0-12.6.8-18.6 2.4 37.8 6.9 66.5 40 66.5 79.7zM29.8 84.6c0-26.8 12.6-50.8 32.1-66.3C28.6 26.9 4 57.1 4 93c0 42.5 34.6 77.1 77.1 77.1 6.4 0 12.7-.8 18.7-2.3-39.7-6.8-70-41.5-70-83.2z"/><path fill="none" d="M114.4 158.3c3 0 5.9-.2 8.7-.5-7.1 4.6-14.9 8.1-23.3 10.2a84.8 84.8 0 0 1-68.9-69.6c-2.8 7.7-4.3 16.1-4.3 24.7 0 40.6 33 73.7 73.7 73.7 40.6 0 73.7-33.1 73.7-73.7s-33-73.7-73.7-73.7c-24.4 0-46 11.9-59.4 30.2-.1 1.7-.2 3.4-.2 5.1 0 40.5 33 73.6 73.7 73.6z"/><path fill="#94d8e9" d="M99.8 167.9c8.4-2.1 16.2-5.6 23.3-10.2-2.9.3-5.8.5-8.7.5-40.6 0-73.7-33-73.7-73.7 0-1.7.1-3.4.2-5.1-4.2 5.7-7.6 12-10 18.8a84.8 84.8 0 0 0 68.9 69.7z"/><path fill="#0099d8" d="M100.3 38.4c-20.9 0-40.1 7.7-54.9 20.3a80.93 80.93 0 0 0-15.1 16.9A83.77 83.77 0 0 0 15.8 123c0 46.6 37.9 84.6 84.6 84.6 46.6 0 84.6-37.9 84.6-84.6-.1-46.7-38.1-84.6-84.7-84.6Zm0 158.3c-40.6 0-73.7-33.1-73.7-73.7 0-8.7 1.5-17 4.3-24.7 2.4-6.8 5.8-13.1 10-18.8a73.61 73.61 0 0 1 59.4-30.2c40.6 0 73.7 33 73.7 73.7 0 40.6-33.1 73.7-73.7 73.7z"/><path fill="#94d8e9" d="M114.4 0C98 0 82.7 4.7 69.8 12.7a86.8 86.8 0 0 0-7.9 5.6C44.6 32.1 32.7 52.5 30.3 75.6c4.3-6.3 9.4-12 15.1-16.9a74.11 74.11 0 0 1 50.4-45.5c5.9-1.5 12.2-2.4 18.6-2.4 40.6 0 73.7 33 73.7 73.7 0 34.5-23.9 63.6-56 71.5a81.4 81.4 0 0 1-22.6 12.9c1.6.1 3.2.2 4.9.2 46.6 0 84.6-37.9 84.6-84.6C198.9 37.9 161 0 114.4 0Z"/><path fill="#a4c0e5" d="M95.8 13.3c-3 .8-5.8 1.7-8.7 2.9 39.7 3.1 71.1 36.4 71.1 76.9 0 27.1-14 50.9-35.2 64.7a76.63 76.63 0 0 1-42 12.5C38.6 170.2 4 135.6 4 93c0-35.9 24.7-66.2 57.9-74.7 2.5-2 5.2-3.9 7.9-5.6C30.4 18.3 0 52.2 0 93c0 44.7 36.4 81.1 81.1 81.1 10 0 19.5-1.8 28.4-5.1 8.2-3.1 15.8-7.5 22.6-12.9A81 81 0 0 0 162.3 93c-.1-39.7-28.8-72.8-66.5-79.7Z"/></svg>