<svg xmlns="http://www.w3.org/2000/svg" viewBox="0 0 421 274"><path fill="#002664" stroke="#002664" stroke-width=".09" d="M67 0h140.3c-1.5 5.8-3.4 11.5-6.9 16.4-6.4 9.7-17.8 15.5-29.3 15.4H60.2C62.4 21.2 64.6 10.6 67 0Z"/><path fill="#002664" stroke="#002664" stroke-width=".09" d="M222.4 0h118c7 1.2 14.1 1.6 21 3.5 13.8 3.3 26.9 10.1 36.7 20.4 9.8 10.4 16.2 23.7 19.5 37.5 1.7 6.7 2.2 13.5 3.4 20.2v20.8c-.7 5-.9 10.1-1.4 15.2-1.4 11.8-3.5 23.4-6 35-4.6 20.9-10.5 41.8-19.8 61.1-7.1 15-16.7 29-29.4 39.7-14.1 11.9-32.2 18.2-50.4 19.6-3.2.3-6.4.6-9.6 1H74.6c-8.4-1.8-17.1-3-25.2-6.4-20.3-7.6-37.1-24.5-43.9-45.2-2.9-7.7-4-15.9-5.5-24v-21.8c1.3-6.4 1.8-13 3.2-19.5 3.4-17.9 8.3-35.8 16.9-51.9C26 94.5 33 84.3 41.6 75.6c9.7-9.4 21.3-16.9 34.2-20.8 12.3-4.2 25.4-4.9 38.2-5h64c5.3 0 10.6-.1 15.8.2-2.1 10.6-4.2 21.3-6.9 31.8-25.6-.1-51.3 0-76.9-.1-12.8.1-26.1 2.2-36.9 9.4-12.1 7.8-20.2 20.1-26.2 32.8-7.4 14.5-11.2 30.4-13.6 46.4-2 13.7-2.4 28 2.1 41.3 3.3 9.9 10.3 18.5 19.5 23.5 10.1 5.5 21.8 7.1 33.1 7.1h182c13.4 0 26.9.3 40.3-.8 10.1-.9 20.4-3.4 29-9.1 9-5.9 15.8-14.5 21.2-23.7 7.4-12.8 12.4-26.7 16.4-40.7 4.9-17.7 8.8-35.7 11-54 1.5-14 2-28.3-.7-42.2-1.6-8-4.4-15.9-9.4-22.5-4.9-6.4-12-11-19.6-13.4-10.7-3.6-22.1-3.8-33.2-4-23.3-.1-46.7 0-70-.1-2.3 0-4.5.3-6.7.4-9.1 43.2-18.3 86.4-27.5 129.7-1.3 6-2.4 12-3.9 18-10.8.1-21.5.1-32.2 0 .3-1.7.5-3.5.8-5.3l32.1-150.9c1.5-7.9 3.5-15.7 4.8-23.6Z"/><path fill="#002664" stroke="#002664" stroke-width=".09" d="M257.2 44.2c23.3-.2 46.5 0 69.8-.1 7.4.1 15-.2 22.2 1.8 7.7 2.1 14.8 6.9 19.2 13.7 5.7 8.3 7.5 18.6 7.9 28.4.7 21.9-4 43.4-8.8 64.6-3.6 14.5-7.7 29.1-14.2 42.7-4.8 9.9-11.1 19.4-20.2 25.8-9.1 6.9-20.9 8.9-32.1 8.7-68 .1-136 0-204 .1-8.6-.2-17.3.3-25.6-2.3-8.1-2-15.4-7-20-14-4.8-7.3-6.8-16-6.8-24.6-.4-11.9 1.6-23.7 4.2-35.2 1.4-6.3 3.2-12.5 5.7-18.4 5-11.4 11.5-22.6 21.6-30.3 9.8-7.8 22.5-10.9 34.9-10.9 24.4-.1 48.9 0 73.3-.1-1.7 10.7-4.5 21.2-6.4 31.8-22.3.5-44.6-.1-67 .2-5.1.1-10.6.8-14.9 3.9-5.8 4.2-8.8 11-11.8 17.3-2.9 6.1-4.3 12.7-5.6 19.3-1.3 7.6-2.9 15.4-2.2 23.2.3 2.7 1.7 5.4 4.2 6.6 3.6 1.7 7.6 1.4 11.4 1.5h212.1c5.2.1 10.7-1.6 13.9-5.9 7.3-9.2 11-20.6 14.4-31.6 4.9-16.8 8.6-33.9 10.9-51.2 1.1-7.7 1.3-15.5 1.1-23.2-.1-2.9-.9-6.2-3.4-8-3.2-2.1-7.3-1.8-11-1.9-15.6.1-31.3-.1-46.9.1-7.5 34.5-14.7 69.1-22.1 103.6-10.8.1-21.5 0-32.3.1.9-6.8 2.6-13.4 4-20.1 8.2-38.6 16.4-77 24.5-115.6Z"/></svg>