<svg xmlns="http://www.w3.org/2000/svg" viewBox="0 0 224.11 200.75"><path fill="#c2122b" d="M220.36 87.26 177.48 13.1C172.42 4.36 164.78 0 154.78 0H69.26c-9.99 0-17.64 4.36-22.7 13.1L3.75 87.26c-5.03 8.75-4.98 17.56.02 26.2l42.79 74.2c5.05 8.73 12.7 13.09 22.69 13.09h85.54c9.99 0 17.63-4.36 22.69-13.1l42.86-74.18c5-8.65 5.05-17.46.03-26.2"/><path fill="#fff" d="M169.19 117.86h-9.12v-14.97h6.35c8.8 0 12.38 2.18 12.38 8.06 0 5.05-3.42 6.9-9.61 6.9m-9.12-37.7h6.27c5.3 0 10.59.43 10.59 6.08 0 6.26-4.4 7.46-11.24 7.46h-5.62V80.15zm19.54 18.29v-2.11c7.66-.98 10.76-5.58 10.76-11.76 0-11.76-11.08-14.02-21.26-14.02h-22.48v57.21h21.83c11.48 0 24.27-1.66 24.27-16.43 0-8.6-6.68-12.06-13.12-12.89m-64.77 30.23a83.6 83.6 0 0 1-20.28-2.27v-10.36c6.19 1.3 10.75 1.97 16.94 1.97 6.27 0 12.3-.92 12.3-7.25 0-12.81-28.67-1.62-28.67-24.83 0-12.44 11.24-16.29 22.88-16.29 5.46 0 10.91.46 16.37 1.12V80.8c-4.96-.66-8.3-.96-13.27-.96-5.13 0-11.65-.18-11.65 5.7 0 10.7 29.24 2.19 29.24 24.57 0 14.25-12.38 18.55-23.86 18.55m-58.6-11.04H49.5V80.76H57c7 0 18.15 2.38 18.15 17.83 0 13.64-7.33 19.04-18.9 19.04m2.05-47.08H35.48v57.21H60c6.35 0 29.4-4.07 29.4-28.72 0-23.6-15.72-28.5-31.11-28.5"/></svg>