<svg xmlns="http://www.w3.org/2000/svg" xml:space="preserve" fill="#fff" fill-rule="evenodd" viewBox="0 0 800 800"><path fill="#d82020" d="M800 800V0H0v800"/><path d="M183.34 281.14v-40.3H21.42v40.3h56.32V502.1h49.28V281.14M302.2 308.5c-3.6-1.6-11-2.3-14.5-2.3-20.3 0-34.4 8.6-46.5 28.9l-3.6-25.4h-42.2v192.4h46.5V396.9c0-24.3 6.3-49.3 34.1-49.3 4.3 0 8.6.8 12.9 2m177.8 152.5c-1.6-11.7-3.5-23.8-3.5-35.6V360.9c0-33.6-23.1-54.7-68.1-54.7-20.4 0-44.2 2.3-63 10.9l7.8 32.5c13.3-7.1 31.7-10.2 45.8-10.2 20.3 0 32.5 9 32.5 29v21.5c-7.1-1.2-16.1-3.2-29.8-3.2-43.8 0-73.9 21.5-73.9 61.4 0 35.6 19.2 57.5 56.7 57.5 21.5 0 37.6-9.4 48.5-26.2l3.5 22.7m-5-57.9c0 17.2-14.9 30.1-32.5 30.1-17.2 0-24.2-12.1-24.2-28.5 0-16.9 9.7-32.1 31.6-32.1 11.4 0 20 1.6 25.1 3.5v27zm341.3 57.9V366.4c0-33.6-16.4-60.2-52.4-60.2-25.8 0-42.6 12.9-49.7 29.3-6.2-13.7-18.4-29.3-48.8-29.3-22.7 0-40.7 11.7-48.5 29.3l-3.6-25.8h-41v192.4H562V381.3c0-19.2 7.4-41.9 27.8-41.9 17.6 0 24.6 12.1 24.6 30.5v132.2h46.2V380.5c0-19.2 7-41.1 27.7-41.1 17.6 0 24.7 13.7 24.7 30.5v132.2"/></svg>