<svg xmlns="http://www.w3.org/2000/svg" id="Layer_1" version="1.1" viewBox="0 0 35.62 37.59"><defs id="defs4"><style id="style2">.cls-1{fill:#004489}</style></defs><path id="path6" d="m33.94 6.84-5.75 5.75a10.97 10.97 0 0 0-9.22-5.27c-6.35 0-10.61 5.21-10.61 11.47 0 1.63.27 3.11.78 4.42A13.98 13.98 0 0 1 4.42 12.8C4.42 5.7 10.46 0 19.24 0c6.26 0 11.63 2.78 14.7 6.85Z" class="cls-1"/><path id="polygon8" fill="#099" d="M36.89 18.58H25.61l-6.31 6.31h11.28v11.29l6.31-6.32z" transform="translate(-1.27 -.81)"/><path id="path10" d="M24.03 28.83a13.2 13.2 0 0 1-6.48 1.75c-9.12 0-16.48-7.44-17.12-16.02A19.88 19.88 0 0 0 0 18.68c0 10.74 7.08 18.91 17.81 18.91 2.19 0 4.28-.37 6.23-1.03v-7.72z" class="cls-1"/></svg>