<?xml version="1.0" encoding="UTF-8" standalone="no"?>
<svg
   xmlns:dc="http://purl.org/dc/elements/1.1/"
   xmlns:cc="http://creativecommons.org/ns#"
   xmlns:rdf="http://www.w3.org/1999/02/22-rdf-syntax-ns#"
   xmlns:svg="http://www.w3.org/2000/svg"
   xmlns="http://www.w3.org/2000/svg"
   xmlns:sodipodi="http://sodipodi.sourceforge.net/DTD/sodipodi-0.dtd"
   xmlns:inkscape="http://www.inkscape.org/namespaces/inkscape"
   id="Layer_1"
   viewBox="0 0 35.619998 37.589999"
   width="35.619999"
   height="37.59"
   version="1.1"
   sodipodi:docname="gatwick-airport-inter-terminal-shuttle.svg"
   inkscape:version="1.0.2 (e86c870879, 2021-01-15, custom)">
  <metadata
     id="metadata41">
    <rdf:RDF>
      <cc:Work
         rdf:about="">
        <dc:format>image/svg+xml</dc:format>
        <dc:type
           rdf:resource="http://purl.org/dc/dcmitype/StillImage" />
        <dc:title></dc:title>
      </cc:Work>
    </rdf:RDF>
  </metadata>
  <sodipodi:namedview
     pagecolor="#ffffff"
     bordercolor="#666666"
     borderopacity="1"
     objecttolerance="10"
     gridtolerance="10"
     guidetolerance="10"
     inkscape:pageopacity="0"
     inkscape:pageshadow="2"
     inkscape:window-width="2560"
     inkscape:window-height="1387"
     id="namedview39"
     showgrid="false"
     fit-margin-top="0"
     fit-margin-left="0"
     fit-margin-right="0"
     fit-margin-bottom="0"
     inkscape:zoom="6.663256"
     inkscape:cx="76.920002"
     inkscape:cy="18.79"
     inkscape:window-x="1072"
     inkscape:window-y="96"
     inkscape:window-maximized="1"
     inkscape:current-layer="Layer_1" />
  <defs
     id="defs4">
    <style
       id="style2">.cls-1{fill:#004489;}.cls-2{fill:#099;}</style>
  </defs>
  <path
     class="cls-1"
     d="m 33.94,6.84 -5.75,5.75 C 26.23,9.43 22.77,7.32 18.97,7.32 c -6.35,0 -10.61,5.21 -10.61,11.47 0,1.63 0.27,3.11 0.78,4.42 C 6.23,20.57 4.42,16.91 4.42,12.8 4.42,5.7 10.46,0 19.24,0 25.5,0 30.87,2.78 33.94,6.85 Z"
     id="path6" />
  <polygon
     class="cls-2"
     points="36.89,18.58 25.61,18.58 19.3,24.89 30.58,24.89 30.58,36.18 36.89,29.86 "
     id="polygon8"
     transform="translate(-1.27,-0.81)" />
  <path
     class="cls-1"
     d="m 24.03,28.83 c -1.99,1.12 -4.2,1.75 -6.48,1.75 C 8.43,30.58 1.07,23.14 0.43,14.56 0.14,15.93 0,17.31 0,18.68 c 0,10.74 7.08,18.91 17.81,18.91 2.19,0 4.28,-0.37 6.23,-1.03 v -7.72 z"
     id="path10" />
</svg>
