<svg xmlns="http://www.w3.org/2000/svg" xml:space="preserve" viewBox="289.4 144 382.6 273"><path fill="#9e0817" d="m376.8 325.9 15.3-181.8h69.1L481 247.7c.1 0 .3.1.4.1 7.3-34.6 14.6-69.1 21.9-103.8h66.1c5.1 60.6 10.2 121.1 15.3 181.9h70.2c8.3 0 14.7 4.6 16.7 12.1.3 1.1.4 2.2.4 3.3v60.5c0 8.1-7.1 15.2-15.1 15.2H304.6c-7.7 0-15.1-7-15.1-14.8-.1-20.4-.1-40.8 0-61.2 0-8.5 7.6-15.1 17-15.1h70.3zm152.4-127.7c-.1 0-.2 0-.4-.1-10 42.5-19.9 85-29.9 127.5h39.9l-9.6-127.4zm-96.7.6c-.1 0-.3 0-.4.1l-9.6 126.9h38.4c-9.5-42.5-18.9-84.7-28.4-127z"/></svg>