<?xml version="1.0" encoding="UTF-8" standalone="no"?>
<svg
   xmlns:dc="http://purl.org/dc/elements/1.1/"
   xmlns:cc="http://creativecommons.org/ns#"
   xmlns:rdf="http://www.w3.org/1999/02/22-rdf-syntax-ns#"
   xmlns:svg="http://www.w3.org/2000/svg"
   xmlns="http://www.w3.org/2000/svg"
   xmlns:sodipodi="http://sodipodi.sourceforge.net/DTD/sodipodi-0.dtd"
   xmlns:inkscape="http://www.inkscape.org/namespaces/inkscape"
   version="1.1"
   id="Layer_1"
   x="0px"
   y="0px"
   width="232.2655"
   height="220.411"
   viewBox="0 0 232.26551 220.41099"
   enable-background="new 0 0 856.063 280.63"
   xml:space="preserve"
   sodipodi:docname="movia-dk.svg"
   inkscape:version="1.0.2 (e86c870879, 2021-01-15, custom)"><metadata
   id="metadata25"><rdf:RDF><cc:Work
       rdf:about=""><dc:format>image/svg+xml</dc:format><dc:type
         rdf:resource="http://purl.org/dc/dcmitype/StillImage" /><dc:title></dc:title></cc:Work></rdf:RDF></metadata><defs
   id="defs23" /><sodipodi:namedview
   pagecolor="#ffffff"
   bordercolor="#666666"
   borderopacity="1"
   objecttolerance="10"
   gridtolerance="10"
   guidetolerance="10"
   inkscape:pageopacity="0"
   inkscape:pageshadow="2"
   inkscape:window-width="2560"
   inkscape:window-height="1387"
   id="namedview21"
   showgrid="false"
   inkscape:zoom="1.2172002"
   inkscape:cx="397.31437"
   inkscape:cy="109.962"
   inkscape:window-x="1072"
   inkscape:window-y="96"
   inkscape:window-maximized="1"
   inkscape:current-layer="g18"
   fit-margin-top="0"
   fit-margin-left="0"
   fit-margin-right="0"
   fit-margin-bottom="0" />
<g
   id="g18"
   transform="translate(-30.717123,-30.353)">
	<path
   d="M 228.691,103.795 192.825,55.334 H 155.72 l 34.74,46.91 c 0.649,0.877 0.649,2.312 0,3.189 l -53.308,71.997 50.721,68.771 c 1.85,2.51 0.812,4.563 -2.306,4.563 H 87.542 c -2.87,0 -4.099,-0.753 -5.581,-2.764 L 31.202,179.173 c -0.648,-0.878 -0.646,-2.314 0.003,-3.191 l 52.226,-70.526 c 0.649,-0.877 2.074,-1.595 3.165,-1.595 h 28.662 c 2.338,0 3.115,1.539 1.725,3.419 l -51.885,70.15 35.448,48.32 h 37.214 l -34.425,-46.48 c -0.649,-0.877 -0.649,-2.312 0,-3.19 l 53.429,-72.284 -51.046,-68.887 c -1.855,-2.506 -0.823,-4.556 2.295,-4.556 h 98.43 c 1.559,0 3.593,1.025 4.521,2.278 l 51.532,69.612 c 0.649,0.877 0.649,2.312 -10e-4,3.188 l -52.324,70.604 c -0.65,0.876 -2.075,1.594 -3.166,1.594 h -28.662 c -2.338,0 -3.115,-1.539 -1.725,-3.419 z"
   id="path2" />
	
</g>
</svg>
