<svg xmlns="http://www.w3.org/2000/svg" xml:space="preserve" viewBox="0 0 232.27 220.41"><path d="m197.97 73.44-35.86-48.46H125l34.73 46.91c.65.88.65 2.31 0 3.19l-53.3 72 50.72 68.77c1.85 2.5.8 4.56-2.31 4.56H56.82c-2.87 0-4.1-.75-5.58-2.76L.48 148.82a2.86 2.86 0 0 1 0-3.2L52.72 75.1a4.45 4.45 0 0 1 3.17-1.6h28.66c2.34 0 3.12 1.55 1.73 3.43l-51.89 70.15 35.45 48.32h37.21l-34.42-46.48a2.86 2.86 0 0 1 0-3.2l53.43-72.28L75 4.56C73.15 2.05 74.18 0 77.3 0h98.43a6.35 6.35 0 0 1 4.52 2.28l51.53 69.61c.65.88.65 2.31 0 3.19l-52.33 70.6a4.45 4.45 0 0 1-3.16 1.6h-28.66c-2.34 0-3.12-1.54-1.73-3.42z"/></svg>