<svg xmlns="http://www.w3.org/2000/svg" viewBox="0 0 433 509"><path fill="#fdb826" d="M0 381.5h433V0H0Z"/><path d="M304.18 110.84 240.26 326.3h-47.75l-64.38-215.6h-.03v215.6H52.76v-44.84h25.86V96.3H52.76V51.5h107.73l28.74 99.8 27.56 93.95 26.72-95.54 27.53-98.2h107.73V96.3h-26.26v185.15h26.26v44.84h-74.5V110.84M0 509h433V381.5H0Z"/><path fill="#fff" d="M351.04 424.89c-8.89 0-15.59 5.64-15.59 19.3 0 8.89 3.6 19.3 15.6 19.3 11.3 0 15.58-9.92 15.58-19.3 0-9.58-4.28-19.3-15.59-19.3m0 51.43c-19.44 0-30.86-15.04-30.86-32.13 0-17.09 11.42-32.13 30.86-32.13 19.48 0 30.87 15.04 30.87 32.13 0 17.09-11.4 32.13-30.87 32.13m-80.14-34.86h13.98c4.89-.09 8.14-2.56 8.14-8.2 0-5.64-3.25-8.11-8.14-8.23H270.9Zm-15.25-27.7h30.5c13.72 0 22.15 6.32 22.15 20.02 0 7.85-4.98 14.15-12.63 16.4l13.98 24.45h-17.06l-12-21.9h-9.7v21.9h-15.24m-61.16-60.88h47.18v11.8h-15.96v49.08h-15.25v-49.08h-15.97m-58.2 49.08v-60.88h44.94v11.8h-29.66v11.1h27.68v11.83h-27.68v14.32h29.52v11.83M49.97 413.75h22.38l10.79 45.23h.17l11.16-45.23h22.12v60.87h-14.41v-47.29h-.17l-12.08 47.3H76.46l-12.43-47.3h-.17v47.3H49.97"/></svg>