<svg xmlns="http://www.w3.org/2000/svg" xml:space="preserve" viewBox="0 0 24 24"><path d="M0 0h24v24H0z"/><g fill="#FFF"><path d="M17.53 7.03c0-1.19-.97-2.16-2.16-2.16h-3.06V2.85h3.07v-.6H8.62v.6h3.08v2.02H8.63c-1.2 0-2.16.97-2.16 2.16v12.6H9l-1.33 2.12H8.9l1.25-2.12h3.68l1.25 2.12h1.25L15 19.63h2.52V7.03zM9.21 5.55h5.58v1.31H9.21v-1.3zm.04 12.9a.81.81 0 1 1 0-1.62.81.81 0 0 1 0 1.62m5.6 0a.81.81 0 1 1 0-1.62.81.81 0 0 1 0 1.62m1.47-2.8H7.68v-7c0-.6.48-1.09 1.08-1.09h6.49c.59 0 1.08.49 1.08 1.08v7.01z"/><path d="m9.12 13.89-.27 1.06h6.3l-.27-1.06z"/></g></svg>