<svg xmlns="http://www.w3.org/2000/svg" viewBox="0 0 213 213"><g fill="none" fill-rule="evenodd"><path fill="#FFF" d="M107.48 174.25a68.5 68.5 0 1 0 0-137 68.5 68.5 0 0 0 0 137"/><path fill="#4D4F53" d="M186.02 106.3a79.73 79.73 0 1 1-159.45 0 79.73 79.73 0 0 1 159.45 0M106.3 53.15a53.15 53.15 0 1 0 0 106.3 53.15 53.15 0 0 0 0-106.3"/><path fill="#FF6200" d="M212.6 106.3c0 58.7-47.6 106.3-106.3 106.3C47.59 212.6 0 165 0 106.3 0 47.59 47.59 0 106.3 0 165 0 212.6 47.59 212.6 106.3M106.3 26.57a79.72 79.72 0 1 0 0 159.45 79.72 79.72 0 0 0 0-159.45"/><path fill="#FF6200" d="M106.05 138.19a82.12 82.12 0 0 1-22.34-3.65l2.9-13.46a67.31 67.31 0 0 0 18.55 2.77c5.43 0 6.32-1.52 6.32-5.16 0-3.9-.13-4.4-9.98-6.79-14.89-3.65-16.28-7.68-16.28-19.12 0-12.96 5.05-18.37 23.48-18.37 4.67 0 13.25.63 18.68 2.01l-1.65 14.1a102.49 102.49 0 0 0-16.9-1.77c-5.3 0-6.57 1.38-6.57 4.15 0 3.78.5 4.28 7.83 5.91 17.53 3.9 18.8 7.68 18.8 19.88 0 12.58-5.3 19.5-22.84 19.5"/></g></svg>