<svg xmlns="http://www.w3.org/2000/svg" xml:space="preserve" id="Layer_1" x="0" y="0" version="1.1" viewBox="-336 39.1 65.22 34.74"><style id="style2" type="text/css">.st0{fill:#002f87}.st1{fill:#fff}</style><path id="path22" d="m-336.8 80.61 3.6-1.3c1-.4 3.1-1.1 6.1-1.1 2.3 0 4 .8 6.3.5 1.5-.2 4.4-1 7.1-1 3.1 0 3.5.6 6.2.2 2.5-.3 4.7-.7 7.4.6 2.6 1.3 6.2.7 7.8.4 1.7-.3 4.8-.5 7.6-.4 2.7.1 5.9 1 8.5 1 2.3 0 6.2-.3 6.9-.5.1-3.7-.6-6.9-.7-7.5-.5-3-.8-6.7-.7-8.3l.7-8.7c.1-1.3.6-6.4.6-11.1 0-2.8-.5-7.4-.9-8.6 0 0-1.7.7-4.1.9-3.6.4-5.5 0-7.1-.4-1.9-.4-6.3-.3-10.2.1-4.1.5-5.2.2-6.1 0-2.3-.4-3.9-1.7-7.2-1.6-1 0-3.2.2-4.1.2-1.5 0-4.1-.6-5.6-.7-.9 0-1.8.2-2.7.3-1 .2-2.5.5-4.8.6-2.2.1-3.1-.1-4.2-.2-1.2-.2-3.3-.4-5.4-.3-2.8.1-7.5 1.3-7.5 1.3.5 1.5 2.2 6.5 2.8 9.7.4 2.1 1.1 5.6 1.4 8.3.2 2.5.5 5.4.3 8 0 1-.1 2.3-.2 3.3-.1 2.3-.4 4.8-.6 6.3-.1 2.1-.8 8.1-1.2 10" class="st1"/><path id="path24" fill="#e2231a" d="M-276.7 41.61c-2.2 0-5.5-.7-6.9-.9-1.2-.2-5.7-.2-6.9 0-1.8.2-4.7.5-6.9.3s-4.6-1.4-6.3-1.7c-1.3-.2-4 .1-5.5.3-1.5.1-3.9-.6-5.9-.5-3 0-5.2 1-7.5.9-1.7 0-3.7-.3-4.7-.5-2.4-.3-3.9-.2-5.8 0-1.2.2-2.2.4-2.9.5.5 1.6 1 3.6 1.4 5.2.4 2 1 5.5 1.3 8.1.2 2.4.5 5.2.4 7.7 0 .9-.1 2.2-.2 3.2-.1 2.2-.4 4.2-.5 5.7-.1.7-.2 2-.3 3.5.9-.3 2.4-.7 3.3-.8 1.2-.2 3.8-.6 5.1-.4 1 .1 2.3.6 4.3.6s4.7-.7 6.5-.8c1.9-.2 3.1-.1 4.8.1.9.1 2.4 0 3.2-.1 1-.1 3.1-.5 4.8-.2 2.1.4 4 1.6 6 1.6 1.6 0 2.6 0 4.1-.2 1.5-.2 4.4-.7 6.9-.6 2.5.1 5.5.8 8.5 1.1 2.8.3 4.5 0 5.2-.2a52.02 52.02 0 0 1-.9-10.5c.1-1.2.6-7.4.8-8.5.2-1.2.6-6.2.5-10.7 0-1.1-.1-2.1-.1-2.9-1.1.2-3.1.7-5.8.7z"/><path id="path26" d="M-333.2 37.71c2.2-.3 4.7-.3 5.9-.1.9.1 2.6.5 4.4.5 2.6.1 6.1-.9 7.8-.9 2-.1 4.1.6 5.7.5 1.5-.1 4.2-.5 5.5-.3 1.7.3 4 1.5 6.4 1.8 2.3.3 5.2-.1 6.4-.2 1.9-.2 6-.3 7.3-.1 1.4.2 4.5.9 6.7.8 3.1 0 4.9-.4 5.7-.6-.1-1.3-.3-2-.3-2s-1.3.4-3.7.6c-3.5.4-5.4-.2-7-.6-1.8-.4-6.2-.3-9.9.1-4 .5-5.1.1-6-.1-2.2-.4-3.8-1.6-7.1-1.6-1 0-3.1.2-3.9.2-1.5.1-4-.6-5.4-.6-.9 0-1.7.1-2.6.3-.9.2-2.5.5-4.6.6-2.2.1-3-.1-4.1-.2-1.2-.2-3.4-.4-5.5-.3-2.3.1-5.6.9-5.6.9s.2.7.6 1.9c.7-.1 1.8-.4 3.3-.6z" class="st0"/><path id="path28" d="M-276.8 75.61c-3.3-.3-6.2-.9-8.5-1-2.7-.1-5.4.3-6.9.5-1.7.2-2.6.2-4.3.2-2 0-3.3-1-5.4-1.4-1.6-.3-4.1 0-5 .1-.8.1-2.5.2-3.3 0-1.7-.2-2.2-.3-4.1-.2-2.6.2-4.8.9-6.8.9s-3.2-.4-4.7-.6c-1.6-.1-3.8.2-5 .4-1 .1-2.6.6-3.4.9-.1 1.2-.3 2.3-.3 2.3s1-.4 2-.7c1-.4 3.4-.9 5.9-.9 2.2 0 3.8.9 6 .5 1.4-.2 4.3-1.1 7-1.1 3 0 3.4.6 6 .2 2.4-.3 5.5-.6 8 .7 2.5 1.2 5.5.6 7 .4 1.4-.2 4.8-.6 7.3-.5 2.6.1 6 .9 8.4 1 2.2.1 5.3-.2 6-.3.1-.6 0-1.2 0-1.9-.7.3-2.7.7-5.9.5z" class="st0"/><path id="path30" d="M-301.6 49.61h4.9s0-2.4-.1-2.8c-.1-.4-.3-1.8-1.5-2.6-1-.6-3.4-1-5.7-1-1.7 0-3.9.3-5.1 1.1-.6.4-1.1.8-1.5 2-.4 1.3-.3 3.3-.3 3.8 0 .4.1 1.6.5 2.3.6 1 1.3 1.5 2.7 2.3 1.4.8 4.2 2.3 4.8 2.7.7.4 1 .9 1 1.5.1.5.1 2.4.1 3.4-.1.9-.2 1.4-.7 1.6-.5.2-1.4.2-2.1.1-.9-.2-.9-1.1-1-1.6v-1.7h-5.5s0 2.8.1 3.3c0 .4.2 1.9 1 2.9.9.9 1.7 1.5 3.4 1.4 1.6-.1 2.4-.2 3.2-.2 1.1 0 1.9.4 3.1.2 1.2-.1 2.6-.6 3.4-2.3.6-1.2.5-2.3.6-3 0-.8.1-4 .1-4.5 0-1.5-.4-2.4-1.4-3.3-1.6-1.4-6.3-3.6-7.2-4.5-.5-.5-.6-1.3-.5-1.8 0-.6 0-1.3.7-1.6.9-.3 2.1-.2 2.5.1.4.3.4.6.5.9v1.3z" class="st1"/></svg>