<?xml version="1.0" encoding="UTF-8" standalone="no"?>
<svg
   xmlns:dc="http://purl.org/dc/elements/1.1/"
   xmlns:cc="http://creativecommons.org/ns#"
   xmlns:rdf="http://www.w3.org/1999/02/22-rdf-syntax-ns#"
   xmlns:svg="http://www.w3.org/2000/svg"
   xmlns="http://www.w3.org/2000/svg"
   xmlns:sodipodi="http://sodipodi.sourceforge.net/DTD/sodipodi-0.dtd"
   xmlns:inkscape="http://www.inkscape.org/namespaces/inkscape"
   version="1.1"
   id="Layer_1"
   x="0px"
   y="0px"
   width="65.215782"
   height="34.736725"
   viewBox="-336 39.1 65.215782 34.736725"
   xml:space="preserve"
   sodipodi:docname="stena-line.svg"
   inkscape:version="1.0.2 (e86c870879, 2021-01-15, custom)"><metadata
   id="metadata39"><rdf:RDF><cc:Work
       rdf:about=""><dc:format>image/svg+xml</dc:format><dc:type
         rdf:resource="http://purl.org/dc/dcmitype/StillImage" /><dc:title></dc:title></cc:Work></rdf:RDF></metadata><defs
   id="defs37" /><sodipodi:namedview
   pagecolor="#ffffff"
   bordercolor="#666666"
   borderopacity="1"
   objecttolerance="10"
   gridtolerance="10"
   guidetolerance="10"
   inkscape:pageopacity="0"
   inkscape:pageshadow="2"
   inkscape:window-width="2560"
   inkscape:window-height="1387"
   id="namedview35"
   showgrid="false"
   fit-margin-top="0"
   fit-margin-left="0"
   fit-margin-right="0"
   fit-margin-bottom="0"
   inkscape:zoom="3.8521257"
   inkscape:cx="39.15"
   inkscape:cy="40.959807"
   inkscape:window-x="1072"
   inkscape:window-y="96"
   inkscape:window-maximized="1"
   inkscape:current-layer="Layer_1" />
<style
   type="text/css"
   id="style2">
	.st0{fill:#002F87;}
	.st1{fill:#FFFFFF;}
	.st2{fill:#E2231A;}
</style>









<path
   class="st1"
   d="m -336.8,80.609808 c 0,0 2.5,-0.9 3.6,-1.3 1,-0.4 3.1,-1.1 6.1,-1.1 2.3,0 4,0.8 6.3,0.5 1.5,-0.2 4.4,-1 7.1,-1 3.1,0 3.5,0.6 6.2,0.2 2.5,-0.3 4.7,-0.7 7.4,0.6 2.6,1.3 6.2,0.7 7.8,0.4 1.7,-0.3 4.8,-0.5 7.6,-0.4 2.7,0.1 5.9,1 8.5,1 2.3,0 6.2,-0.3 6.9,-0.5 0.1,-3.7 -0.6,-6.9 -0.7,-7.5 -0.5,-3 -0.8,-6.7 -0.7,-8.3 0.1,-1.2 0.6,-7.5 0.7,-8.7 0.1,-1.3 0.6,-6.4 0.6,-11.1 0,-2.8 -0.5,-7.4 -0.9,-8.6 0,0 -1.7,0.7 -4.1,0.9 -3.6,0.4 -5.5,0 -7.1,-0.4 -1.9,-0.4 -6.3,-0.3 -10.2,0.1 -4.1,0.5 -5.2,0.2 -6.1,0 -2.3,-0.4 -3.9,-1.7 -7.2,-1.6 -1,0 -3.2,0.2 -4.1,0.2 -1.5,0 -4.1,-0.6 -5.6,-0.7 -0.9,0 -1.8,0.2 -2.7,0.3 -1,0.2 -2.5,0.5 -4.8,0.6 -2.2,0.1 -3.1,-0.1 -4.2,-0.2 -1.2,-0.2 -3.3,-0.4 -5.4,-0.3 -2.8,0.1 -7.5,1.3 -7.5,1.3 0.5,1.5 2.2,6.5 2.8,9.7 0.4,2.1 1.1,5.6 1.4,8.3 0.2,2.5 0.5,5.4 0.3,8 0,1 -0.1,2.3 -0.2,3.3 -0.1,2.3 -0.4,4.8 -0.6,6.3 -0.1,2.1 -0.8,8.1 -1.2,10"
   id="path22" />
<path
   class="st2"
   d="m -276.7,41.609808 c -2.2,0 -5.5,-0.7 -6.9,-0.9 -1.2,-0.2 -5.7,-0.2 -6.9,0 -1.8,0.2 -4.7,0.5 -6.9,0.3 -2.2,-0.2 -4.6,-1.4 -6.3,-1.7 -1.3,-0.2 -4,0.1 -5.5,0.3 -1.5,0.1 -3.9,-0.6 -5.9,-0.5 -3,0 -5.2,1 -7.5,0.9 -1.7,0 -3.7,-0.3 -4.7,-0.5 -2.4,-0.3 -3.9,-0.2 -5.8,0 -1.2,0.2 -2.2,0.4 -2.9,0.5 0.5,1.6 1,3.6 1.4,5.2 0.4,2 1,5.5 1.3,8.1 0.2,2.4 0.5,5.2 0.4,7.7 0,0.9 -0.1,2.2 -0.2,3.2 -0.1,2.2 -0.4,4.2 -0.5,5.7 -0.1,0.7 -0.2,2 -0.3,3.5 0.9,-0.3 2.4,-0.7 3.3,-0.8 1.2,-0.2 3.8,-0.6 5.1,-0.4 1,0.1 2.3,0.6 4.3,0.6 2,0 4.7,-0.7 6.5,-0.8 1.9,-0.2 3.1,-0.1 4.8,0.1 0.9,0.1 2.4,0 3.2,-0.1 1,-0.1 3.1,-0.5 4.8,-0.2 2.1,0.4 4,1.6 6,1.6 1.6,0 2.6,0 4.1,-0.2 1.5,-0.2 4.4,-0.7 6.9,-0.6 2.5,0.1 5.5,0.8 8.5,1.1 2.8,0.3 4.5,0 5.2,-0.2 -0.1,-0.6 -0.2,-1.2 -0.3,-1.7 -0.5,-2.9 -0.7,-7.5 -0.6,-8.8 0.1,-1.2 0.6,-7.4 0.8,-8.5 0.2,-1.2 0.6,-6.2 0.5,-10.7 0,-1.1 -0.1,-2.1 -0.1,-2.9 -1.1,0.2 -3.1,0.7 -5.8,0.7 z"
   id="path24" />
<path
   class="st0"
   d="m -333.2,37.709808 c 2.2,-0.3 4.7,-0.3 5.9,-0.1 0.9,0.1 2.6,0.5 4.4,0.5 2.6,0.1 6.1,-0.9 7.8,-0.9 2,-0.1 4.1,0.6 5.7,0.5 1.5,-0.1 4.2,-0.5 5.5,-0.3 1.7,0.3 4,1.5 6.4,1.8 2.3,0.3 5.2,-0.1 6.4,-0.2 1.9,-0.2 6,-0.3 7.3,-0.1 1.4,0.2 4.5,0.9 6.7,0.8 3.1,0 4.9,-0.4 5.7,-0.6 -0.1,-1.3 -0.3,-2 -0.3,-2 0,0 -1.3,0.4 -3.7,0.6 -3.5,0.4 -5.4,-0.2 -7,-0.6 -1.8,-0.4 -6.2,-0.3 -9.9,0.1 -4,0.5 -5.1,0.1 -6,-0.1 -2.2,-0.4 -3.8,-1.6 -7.1,-1.6 -1,0 -3.1,0.2 -3.9,0.2 -1.5,0.1 -4,-0.6 -5.4,-0.6 -0.9,0 -1.7,0.1 -2.6,0.3 -0.9,0.2 -2.5,0.5 -4.6,0.6 -2.2,0.1 -3,-0.1 -4.1,-0.2 -1.2,-0.2 -3.4,-0.4 -5.5,-0.3 -2.3,0.1 -5.6,0.9 -5.6,0.9 0,0 0.2,0.7 0.6,1.9 0.7,-0.1 1.8,-0.4 3.3,-0.6 z"
   id="path26" />
<path
   class="st0"
   d="m -276.8,75.609808 c -3.3,-0.3 -6.2,-0.9 -8.5,-1 -2.7,-0.1 -5.4,0.3 -6.9,0.5 -1.7,0.2 -2.6,0.2 -4.3,0.2 -2,0 -3.3,-1 -5.4,-1.4 -1.6,-0.3 -4.1,0 -5,0.1 -0.8,0.1 -2.5,0.2 -3.3,0 -1.7,-0.2 -2.2,-0.3 -4.1,-0.2 -2.6,0.2 -4.8,0.9 -6.8,0.9 -2,0 -3.2,-0.4 -4.7,-0.6 -1.6,-0.1 -3.8,0.2 -5,0.4 -1,0.1 -2.6,0.6 -3.4,0.9 -0.1,1.2 -0.3,2.3 -0.3,2.3 0,0 1,-0.4 2,-0.7 1,-0.4 3.4,-0.9 5.9,-0.9 2.2,0 3.8,0.9 6,0.5 1.4,-0.2 4.3,-1.1 7,-1.1 3,0 3.4,0.6 6,0.2 2.4,-0.3 5.5,-0.6 8,0.7 2.5,1.2 5.5,0.6 7,0.4 1.4,-0.2 4.8,-0.6 7.3,-0.5 2.6,0.1 6,0.9 8.4,1 2.2,0.1 5.3,-0.2 6,-0.3 0.1,-0.6 0,-1.2 0,-1.9 -0.7,0.3 -2.7,0.7 -5.9,0.5 z"
   id="path28" />
<path
   class="st1"
   d="m -301.6,49.609808 c 0,0 1.8,0 2.3,0 0.5,0 2.6,0 2.6,0 0,0 0,-2.4 -0.1,-2.8 -0.1,-0.4 -0.3,-1.8 -1.5,-2.6 -1,-0.6 -3.4,-1 -5.7,-1 -1.7,0 -3.9,0.3 -5.1,1.1 -0.6,0.4 -1.1,0.8 -1.5,2 -0.4,1.3 -0.3,3.3 -0.3,3.8 0,0.4 0.1,1.6 0.5,2.3 0.6,1 1.3,1.5 2.7,2.3 1.4,0.8 4.2,2.3 4.8,2.7 0.7,0.4 1,0.9 1,1.5 0.1,0.5 0.1,2.4 0.1,3.4 -0.1,0.9 -0.2,1.4 -0.7,1.6 -0.5,0.2 -1.4,0.2 -2.1,0.1 -0.9,-0.2 -0.9,-1.1 -1,-1.6 0,-0.6 0,-1.7 0,-1.7 h -5.5 c 0,0 0,2.8 0.1,3.3 0,0.4 0.2,1.9 1,2.9 0.9,0.9 1.7,1.5 3.4,1.4 1.6,-0.1 2.4,-0.2 3.2,-0.2 1.1,0 1.9,0.4 3.1,0.2 1.2,-0.1 2.6,-0.6 3.4,-2.3 0.6,-1.2 0.5,-2.3 0.6,-3 0,-0.8 0.1,-4 0.1,-4.5 0,-1.5 -0.4,-2.4 -1.4,-3.3 -1.6,-1.4 -6.3,-3.6 -7.2,-4.5 -0.5,-0.5 -0.6,-1.3 -0.5,-1.8 0,-0.6 0,-1.3 0.7,-1.6 0.9,-0.3 2.1,-0.2 2.5,0.1 0.4,0.3 0.4,0.6 0.5,0.9 0,0.5 0,1.3 0,1.3 z"
   id="path30" />

</svg>
