<svg xmlns="http://www.w3.org/2000/svg" xml:space="preserve" viewBox="0 0 144 142.6"><switch><g><path fill="#0075bf" d="M22 117.6c-.2.6-.6 1.1-1.1 1.4-.5.3-1.1.6-1.8.6s-1.3-.2-1.8-.6c-.5-.3-.9-.8-1.1-1.4L.5 75.6c-.4-1.1-.6-2.5-.6-4 0-1.4.2-2.9.6-4l15.7-42c.2-.6.6-1.1 1.1-1.4.5-.3 1.1-.6 1.8-.6a3 3 0 0 1 1.8.6c.5.3.9.8 1.1 1.4l15.7 42c.4 1.1.6 2.5.6 4 0 1.4-.2 2.9-.6 4l-15.7 42zm26.4-70.9c-.2.6-.6 1.1-1.1 1.4-.5.3-1.1.6-1.8.6s-1.3-.2-1.8-.6c-.5-.3-.9-.8-1.1-1.4L27 4.7c-.1-.2-.1-.4-.2-.6-.1-.3-.1-.6-.1-.9 0-1.8 1.5-3.3 3.3-3.3h31.2c1.8 0 3.3 1.5 3.3 3.3 0 .3 0 .6-.1.9-.1.2-.1.4-.2.6l-15.8 42zm52.8 0c-.2.6-.6 1.1-1.1 1.4-.5.3-1.1.6-1.8.6s-1.3-.2-1.8-.6c-.5-.3-.9-.8-1.1-1.4l-15.7-42c-.1-.2-.1-.4-.2-.6-.1-.3-.1-.6-.1-.9 0-1.8 1.5-3.3 3.3-3.3h31.2c1.8 0 3.3 1.5 3.3 3.3 0 .3 0 .6-.1.9-.1.2-.1.4-.2.6l-15.7 42zm-26.3 71.6c-.2.6-.6 1.1-1.1 1.4-.5.3-1.1.6-1.8.6s-1.3-.2-1.8-.6c-.5-.3-.9-.8-1.1-1.4l-15.7-42c-.4-1.1-.6-2.5-.6-3.9s.2-2.9.6-4l15.7-42c.2-.6.6-1.1 1.1-1.4.5-.3 1.1-.6 1.8-.6a3 3 0 0 1 1.8.6c.5.3.9.8 1.1 1.4l15.7 42c.4 1.1.6 2.5.6 4 0 1.4-.2 2.9-.6 3.9l-15.7 42zm52.8-.7c-.2.6-.6 1.1-1.1 1.4-.5.3-1.1.6-1.8.6s-1.3-.2-1.8-.6c-.5-.3-.9-.8-1.1-1.4l-15.7-42c-.4-1.1-.6-2.5-.6-4 0-1.4.2-2.9.6-4l15.7-42c.2-.6.6-1.1 1.1-1.4.5-.3 1.1-.6 1.8-.6a3 3 0 0 1 1.8.6c.5.3.9.8 1.1 1.4l15.7 42c.4 1.1.6 2.5.6 4 0 1.4-.2 2.9-.6 4l-15.7 42zM48.4 96c-.2-.6-.6-1.1-1.1-1.4-.5-.3-1.1-.6-1.8-.6s-1.3.2-1.8.6c-.5.3-.9.8-1.1 1.4l-15.7 42c-.1.2-.1.4-.2.6-.1.3-.1.6-.1.9 0 1.8 1.5 3.3 3.3 3.3h31.2c1.8 0 3.3-1.5 3.3-3.3 0-.3 0-.6-.1-.9-.1-.2-.1-.4-.2-.6L48.4 96zm52.8 0c-.2-.6-.6-1.1-1.1-1.4-.5-.4-1.1-.6-1.8-.6s-1.3.2-1.8.6c-.5.3-.9.8-1.1 1.4l-15.7 42c-.1.2-.1.4-.2.6-.1.3-.1.6-.1.9 0 1.8 1.5 3.3 3.3 3.3h31.2c1.8 0 3.3-1.5 3.3-3.3 0-.3 0-.6-.1-.9-.1-.2-.1-.4-.2-.6l-15.7-42z"/></g></switch></svg>